<svg width="40" height="39" viewBox="0 0 40 39" fill="none" xmlns="http://www.w3.org/2000/svg">
<path d="M39.22 19.5C39.22 30.29 30.51 39 19.72 39C8.92997 39 0.219971 30.29 0.219971 19.5C0.219971 8.71 8.92997 0 19.72 0C30.51 0 39.22 8.71 39.22 19.5Z" fill="#FFDD67"/>
<path d="M30.7699 23.4C30.7699 22.88 30.4449 22.23 29.5999 22.035C27.3249 21.58 24.0099 21.19 19.7199 21.19C15.4299 21.19 12.1149 21.645 9.83992 22.035C8.99492 22.23 8.66992 22.88 8.66992 23.4C8.66992 28.145 12.3099 32.89 19.7199 32.89C27.1299 32.89 30.7699 28.145 30.7699 23.4Z" fill="#664E27"/>
<path d="M17.4449 16.185C16.2099 12.87 14.3899 11.18 12.5699 11.18C10.7499 11.18 8.92993 12.87 7.69493 16.185C7.56493 16.51 8.21493 17.095 8.53993 16.77C9.70993 15.535 11.1399 15.015 12.5699 15.015C13.9999 15.015 15.4299 15.535 16.5999 16.77C16.9899 17.095 17.5749 16.51 17.4449 16.185Z" fill="#664E27"/>
<path d="M31.68 16.185C30.445 12.87 28.625 11.18 26.805 11.18C24.985 11.18 23.165 12.87 21.93 16.185C21.8 16.51 22.45 17.095 22.775 16.77C23.945 15.535 25.375 15.015 26.805 15.015C28.3 15.015 29.665 15.535 30.835 16.77C31.16 17.095 31.81 16.51 31.68 16.185Z" fill="#664E27"/>
<path d="M27.975 23.595C26.545 23.335 23.555 22.945 19.72 22.945C15.885 22.945 12.895 23.335 11.465 23.595C10.62 23.725 10.555 24.05 10.62 24.57C10.685 24.83 10.685 25.22 10.815 25.61C10.88 26 11.01 26.195 11.66 26.13C12.895 26 26.61 26 27.845 26.13C28.495 26.195 28.56 26 28.69 25.61C28.755 25.22 28.82 24.895 28.885 24.57C28.885 24.05 28.82 23.725 27.975 23.595Z" fill="white"/>
<path d="M39.22 19.5C39.22 30.29 30.51 39 19.72 39C8.92997 39 0.219971 30.29 0.219971 19.5C0.219971 8.71 8.92997 0 19.72 0C30.51 0 39.22 8.71 39.22 19.5Z" fill="#FFDD67"/>
<path d="M30.7699 23.4C30.7699 22.88 30.4449 22.23 29.5999 22.035C27.3249 21.58 24.0099 21.19 19.7199 21.19C15.4299 21.19 12.1149 21.645 9.83992 22.035C8.99492 22.23 8.66992 22.88 8.66992 23.4C8.66992 28.145 12.3099 32.89 19.7199 32.89C27.1299 32.89 30.7699 28.145 30.7699 23.4Z" fill="#664E27"/>
<path d="M17.4449 16.185C16.2099 12.87 14.3899 11.18 12.5699 11.18C10.7499 11.18 8.92993 12.87 7.69493 16.185C7.56493 16.51 8.21493 17.095 8.53993 16.77C9.70993 15.535 11.1399 15.015 12.5699 15.015C13.9999 15.015 15.4299 15.535 16.5999 16.77C16.9899 17.095 17.5749 16.51 17.4449 16.185Z" fill="#664E27"/>
<path d="M31.68 16.185C30.445 12.87 28.625 11.18 26.805 11.18C24.985 11.18 23.165 12.87 21.93 16.185C21.8 16.51 22.45 17.095 22.775 16.77C23.945 15.535 25.375 15.015 26.805 15.015C28.3 15.015 29.665 15.535 30.835 16.77C31.16 17.095 31.81 16.51 31.68 16.185Z" fill="#664E27"/>
<path d="M27.975 23.595C26.545 23.335 23.555 22.945 19.72 22.945C15.885 22.945 12.895 23.335 11.465 23.595C10.62 23.725 10.555 24.05 10.62 24.57C10.685 24.83 10.685 25.22 10.815 25.61C10.88 26 11.01 26.13 11.66 26.13H27.845C28.495 26.13 28.56 26 28.69 25.61C28.755 25.22 28.82 24.895 28.885 24.57C28.885 24.05 28.82 23.725 27.975 23.595Z" fill="white"/>
</svg>
