<svg width="32" height="33" viewBox="0 0 32 33" fill="none" xmlns="http://www.w3.org/2000/svg">
<path d="M6.21717 4.9037C6.69724 4.9037 7.15764 4.69467 7.4971 4.32261C7.83656 3.95055 8.02727 3.44592 8.02727 2.91974C8.02727 2.39357 7.83656 1.88894 7.4971 1.51688C7.15764 1.14481 6.69724 0.935791 6.21717 0.935791H2.59697C2.1169 0.935791 1.65649 1.14481 1.31703 1.51688C0.977572 1.88894 0.786865 2.39357 0.786865 2.91974V30.6951C0.786865 31.2213 0.977572 31.7259 1.31703 32.0979C1.65649 32.47 2.1169 32.679 2.59697 32.679H6.21717C6.69724 32.679 7.15764 32.47 7.4971 32.0979C7.83656 31.7259 8.02727 31.2213 8.02727 30.6951C8.02727 30.1689 7.83656 29.6643 7.4971 29.2922C7.15764 28.9201 6.69724 28.7111 6.21717 28.7111H4.40707V4.9037H6.21717Z" fill="white"/>
<path d="M31.2328 15.6568L26.1283 7.72096C25.8515 7.29324 25.4314 7.00305 24.9599 6.91382C24.4885 6.8246 24.0039 6.9436 23.6123 7.24481C23.4165 7.39516 23.2498 7.58653 23.1219 7.80786C22.994 8.0292 22.9073 8.27611 22.867 8.53435C22.8266 8.79258 22.8332 9.05703 22.8866 9.31243C22.94 9.56782 23.0389 9.8091 23.1778 10.0223L26.2912 14.8235H26.1283H11.6475C11.1674 14.8235 10.707 15.0325 10.3676 15.4046C10.0281 15.7767 9.8374 16.2813 9.8374 16.8075C9.8374 17.3336 10.0281 17.8383 10.3676 18.2103C10.707 18.5824 11.1674 18.7914 11.6475 18.7914H26.1283L22.8701 23.5529C22.7275 23.7613 22.6237 23.9985 22.5647 24.2509C22.5057 24.5033 22.4927 24.7659 22.5263 25.0238C22.5599 25.2818 22.6396 25.5299 22.7607 25.7541C22.8818 25.9783 23.042 26.1741 23.2321 26.3304C23.5455 26.588 23.9266 26.7272 24.3182 26.7272C24.5992 26.7272 24.8764 26.6555 25.1277 26.5178C25.3791 26.38 25.5977 26.18 25.7663 25.9336L31.1966 17.9978C31.4284 17.6623 31.5569 17.2546 31.5634 16.8338C31.5699 16.4129 31.4541 16.0007 31.2328 15.6568Z" fill="white"/>
</svg>
