<svg width="34" height="37" viewBox="0 0 34 37" fill="none" xmlns="http://www.w3.org/2000/svg">
<path d="M11.6208 36.4166C10.8231 36.4115 10.0486 36.1222 9.41402 35.5925L6.03026 32.8333C5.2494 32.166 4.73128 31.1963 4.58232 30.1234C4.43336 29.0505 4.66486 27.9558 5.22927 27.0641C5.52791 26.5808 5.7177 26.0268 5.78305 25.4475C5.84841 24.8682 5.78748 24.2801 5.60525 23.7316L5.50717 23.445C5.38028 22.9485 5.14838 22.4919 4.83027 22.1121C4.51216 21.7323 4.11682 21.4401 3.67634 21.2591H3.4148C2.45994 20.9072 1.6703 20.1567 1.21733 19.1704C0.764365 18.1842 0.684648 17.0419 0.995492 15.9916L2.33592 11.3333C2.45931 10.7936 2.68648 10.289 3.00223 9.85332C3.31798 9.41764 3.71501 9.06092 4.16674 8.80706C4.58743 8.56949 5.04771 8.42794 5.51975 8.39099C5.99179 8.35403 6.46576 8.42244 6.91298 8.59206C7.39992 8.77168 7.91952 8.81824 8.42661 8.72769C8.9337 8.63714 9.41294 8.41222 9.82268 8.07248L10.0352 7.89331C10.4061 7.56894 10.7058 7.15748 10.9124 6.68925C11.1189 6.22102 11.2269 5.70797 11.2285 5.1879V4.7579C11.2241 3.66163 11.615 2.60785 12.3161 1.82598C13.0172 1.04412 13.9718 0.597478 14.9719 0.583313H19.1403C19.6269 0.58475 20.1084 0.691537 20.5573 0.897541C21.0061 1.10354 21.4134 1.40471 21.7557 1.78373C22.4755 2.58602 22.8753 3.66861 22.8673 4.79373V5.2954C22.859 5.78945 22.9568 6.27873 23.1527 6.72377C23.3486 7.16881 23.6372 7.55715 23.9952 7.85748L24.175 8.00081C24.5419 8.30235 24.9699 8.5022 25.4224 8.58331C25.875 8.66442 26.3388 8.6244 26.7742 8.46665L27.3299 8.26956C27.8008 8.09848 28.2983 8.03309 28.7928 8.07731C29.2872 8.12153 29.7685 8.27443 30.2078 8.52692C30.6472 8.7794 31.0357 9.12629 31.3501 9.54688C31.6645 9.96748 31.8983 10.4532 32.0378 10.975L33.3292 15.49C33.628 16.5334 33.5463 17.6632 33.1013 18.642C32.6563 19.6209 31.8825 20.3727 30.9426 20.7396L30.6156 20.865C30.1348 21.0376 29.6999 21.3369 29.3494 21.7368C28.9988 22.1367 28.7432 22.6248 28.605 23.1583C28.4749 23.6543 28.444 24.1752 28.5146 24.6854C28.5851 25.1956 28.7553 25.6831 29.0137 26.1146L29.4387 26.7954C30.0023 27.692 30.2316 28.791 30.0797 29.867C29.9277 30.9431 29.4059 31.9146 28.6213 32.5825L25.3357 35.3596C24.9387 35.6923 24.4838 35.9324 23.999 36.0652C23.5142 36.198 23.0097 36.2206 22.5166 36.1317C22.0235 36.0427 21.5522 35.8441 21.1318 35.548C20.7114 35.2519 20.3507 34.8646 20.072 34.41L19.8759 34.1054C19.6081 33.6644 19.2428 33.3049 18.8141 33.0606C18.3853 32.8162 17.907 32.6949 17.4239 32.7079C16.9629 32.721 16.5111 32.8527 16.1051 33.0923C15.699 33.3319 15.35 33.6728 15.0863 34.0875L14.7103 34.6787C14.4315 35.1365 14.0701 35.5269 13.6484 35.8258C13.2267 36.1247 12.7536 36.3258 12.2583 36.4166C12.0463 36.4394 11.8328 36.4394 11.6208 36.4166ZM4.73888 17.8191C5.66196 18.1799 6.49487 18.7732 7.1706 19.5511C7.84633 20.3291 8.34599 21.2701 8.62938 22.2983V22.5133C8.98236 23.5823 9.09826 24.7279 8.96751 25.8557C8.83677 26.9834 8.46312 28.0609 7.87743 28.9991C7.77405 29.1243 7.7168 29.2872 7.7168 29.456C7.7168 29.6249 7.77405 29.7877 7.87743 29.9129L11.392 32.8333C11.4378 32.8728 11.4908 32.9011 11.5475 32.9162C11.6041 32.9314 11.6631 32.9331 11.7204 32.9212C11.7777 32.9093 11.832 32.8841 11.8796 32.8473C11.9273 32.8105 11.9673 32.763 11.9968 32.7079L12.3728 32.1166C12.9398 31.2186 13.6971 30.4847 14.5797 29.9777C15.4622 29.4708 16.4438 29.206 17.4402 29.206C18.4367 29.206 19.4182 29.4708 20.3008 29.9777C21.1834 30.4847 21.9406 31.2186 22.5077 32.1166L22.7038 32.4391C22.7741 32.5484 22.879 32.6251 22.9981 32.6541C23.0527 32.663 23.1084 32.6596 23.1617 32.6442C23.2151 32.6288 23.2651 32.6017 23.3087 32.5646L26.6761 29.7696C26.794 29.667 26.8715 29.5189 26.8928 29.3556C26.9141 29.1923 26.8775 29.0263 26.7905 28.8916L26.3655 28.2108C25.8117 27.3257 25.4464 26.3156 25.2964 25.2551C25.1464 24.1945 25.2157 23.1106 25.4991 22.0833C25.7864 21.0036 26.3061 20.0153 27.0144 19.2015C27.7227 18.3878 28.5989 17.7724 29.5694 17.4071L29.8964 17.2816C30.0326 17.2218 30.1418 17.1054 30.1999 16.9577C30.2581 16.81 30.2607 16.643 30.207 16.4933L28.9319 12.0321C28.9013 11.954 28.8565 11.8836 28.8003 11.8251C28.7441 11.7665 28.6777 11.7212 28.605 11.6916C28.5569 11.6649 28.5037 11.6509 28.4497 11.6509C28.3957 11.6509 28.3425 11.6649 28.2944 11.6916L27.7386 11.8887C26.7984 12.2288 25.797 12.3136 24.8203 12.1357C23.8436 11.9578 22.921 11.5226 22.1317 10.8675L22.0663 10.7062C21.309 10.0776 20.6948 9.26504 20.2722 8.33243C19.8496 7.39982 19.63 6.37253 19.6307 5.33123V4.77581C19.6336 4.60312 19.575 4.43599 19.4672 4.30998C19.3732 4.21683 19.2507 4.16568 19.1239 4.16665H14.9719C14.9053 4.1712 14.8402 4.19013 14.7803 4.22234C14.7204 4.25455 14.6668 4.29941 14.6228 4.35434C14.5788 4.40928 14.545 4.47321 14.5236 4.54246C14.5021 4.61171 14.4934 4.68493 14.4978 4.7579V5.20581C14.4979 6.27551 14.274 7.33095 13.8432 8.29079C13.4124 9.25064 12.7863 10.0893 12.0131 10.7421L11.8006 10.9212C10.9665 11.6173 9.98897 12.0778 8.95418 12.2621C7.91939 12.4465 6.85911 12.349 5.86679 11.9783C5.79255 11.951 5.71219 11.951 5.63794 11.9783C5.54569 12.0397 5.47621 12.1349 5.44178 12.2471L4.08501 16.9233C4.03771 17.0826 4.0488 17.2558 4.11591 17.4062C4.18303 17.5567 4.30092 17.6727 4.44464 17.7296L4.73888 17.8191Z" fill="white"/>
<path d="M17.1622 24.7709C16.0307 24.7709 14.9245 24.4031 13.9836 23.714C13.0428 23.025 12.3095 22.0456 11.8764 20.8998C11.4434 19.7539 11.3301 18.4931 11.5509 17.2766C11.7716 16.0602 12.3165 14.9429 13.1167 14.0659C13.9168 13.1889 14.9362 12.5916 16.0461 12.3497C17.1559 12.1077 18.3063 12.2319 19.3517 12.7065C20.3971 13.1812 21.2907 13.9849 21.9194 15.0161C22.548 16.0474 22.8836 17.2598 22.8836 18.5C22.8836 20.1632 22.2808 21.7582 21.2078 22.9342C20.1349 24.1102 18.6796 24.7709 17.1622 24.7709ZM17.1622 15.8125C16.6773 15.8125 16.2032 15.9701 15.8 16.2654C15.3968 16.5608 15.0825 16.9805 14.8969 17.4716C14.7113 17.9626 14.6628 18.503 14.7574 19.0243C14.852 19.5457 15.0855 20.0245 15.4284 20.4004C15.7713 20.7762 16.2082 21.0322 16.6839 21.1359C17.1595 21.2396 17.6525 21.1864 18.1006 20.983C18.5486 20.7795 18.9316 20.4351 19.201 19.9931C19.4704 19.5512 19.6142 19.0316 19.6142 18.5C19.6142 17.7873 19.3559 17.1037 18.8961 16.5997C18.4362 16.0957 17.8126 15.8125 17.1622 15.8125Z" fill="white"/>
</svg>
