<svg width="34" height="41" viewBox="0 0 34 41" fill="none" xmlns="http://www.w3.org/2000/svg">
<path d="M32.509 17.1967L18.5531 1.56311C18.3848 1.37715 18.1846 1.22956 17.964 1.12884C17.7435 1.02811 17.5069 0.976257 17.2679 0.976257C17.029 0.976257 16.7924 1.02811 16.5718 1.12884C16.3512 1.22956 16.151 1.37715 15.9828 1.56311L2.02687 17.2165C1.68918 17.5896 1.42247 18.0325 1.24225 18.5196C1.06202 19.0066 0.971865 19.528 0.977015 20.0535V36.6791C0.975613 37.6947 1.32957 38.6722 1.96601 39.4104C2.60244 40.1485 3.47289 40.5911 4.39811 40.647H30.1377C31.063 40.5911 31.9334 40.1485 32.5698 39.4104C33.2063 38.6722 33.5602 37.6947 33.5588 36.6791V20.0535C33.5603 18.988 33.1838 17.9636 32.509 17.1967ZM13.6477 36.6791V24.7754H20.8881V36.6791H13.6477ZM29.9386 36.6791H24.5083V22.7914C24.5083 22.2652 24.3176 21.7606 23.9782 21.3885C23.6387 21.0165 23.1783 20.8074 22.6982 20.8074H11.8376C11.3576 20.8074 10.8971 21.0165 10.5577 21.3885C10.2182 21.7606 10.0275 22.2652 10.0275 22.7914V36.6791H4.59722V19.9742L17.2679 5.78893L29.9386 20.0535V36.6791Z" fill="white"/>
</svg>
