<svg width="26" height="37" viewBox="0 0 26 37" fill="none" xmlns="http://www.w3.org/2000/svg">
<path d="M13.2677 16.8235C14.6998 16.8235 16.0996 16.358 17.2903 15.486C18.481 14.614 19.409 13.3746 19.957 11.9246C20.505 10.4745 20.6484 8.87885 20.369 7.33946C20.0897 5.80006 19.4001 4.38603 18.3875 3.27619C17.3749 2.16635 16.0848 1.41054 14.6803 1.10433C13.2758 0.798126 11.82 0.955282 10.497 1.55592C9.17395 2.15657 8.04316 3.17372 7.24757 4.47876C6.45199 5.78379 6.02734 7.3181 6.02734 8.88766C6.02734 10.9924 6.79017 13.0109 8.14801 14.4991C9.50585 15.9874 11.3475 16.8235 13.2677 16.8235Z" fill="white"/>
<path d="M24.1282 36.663C24.6083 36.663 25.0687 36.454 25.4082 36.0819C25.7476 35.7099 25.9383 35.2052 25.9383 34.679C25.9383 30.9958 24.6034 27.4634 22.2272 24.859C19.851 22.2545 16.6281 20.7914 13.2676 20.7914C9.90715 20.7914 6.68431 22.2545 4.30809 24.859C1.93187 27.4634 0.596924 30.9958 0.596924 34.679C0.596924 35.2052 0.787631 35.7099 1.12709 36.0819C1.46655 36.454 1.92696 36.663 2.40702 36.663H24.1282Z" fill="white"/>
</svg>
